<svg width="31" height="22" viewBox="0 0 31 22" fill="none" xmlns="http://www.w3.org/2000/svg">
<path d="M30.8108 10.5139L21.1233 0.201432C20.871 -0.0671441 20.4623 -0.0671441 20.2101 0.201432C19.9578 0.470008 19.9578 0.905067 20.2101 1.17358L28.7951 10.3125H0.645854C0.288869 10.3125 0 10.62 0 11C0 11.3801 0.288869 11.6876 0.645854 11.6876H28.7951L20.2101 20.8264C19.9578 21.095 19.9578 21.5301 20.2101 21.7986C20.3362 21.9328 20.5015 22 20.6667 22C20.8319 22 20.9972 21.9328 21.1234 21.7986L30.8109 11.4861C31.0631 11.2176 31.0631 10.7825 30.8108 10.5139Z" fill="black"/>
</svg>
