<svg width="113" height="29" viewBox="0 0 113 29" fill="none" xmlns="http://www.w3.org/2000/svg">
<path d="M17.8242 16.9492H7.04297V23.7266H19.7773V29H0.1875V0.5625H19.8164V5.85547H7.04297V11.8516H17.8242V16.9492ZM31.5742 0.5625L37.9219 20.3477L44.25 0.5625H53.2734V29H46.3984V22.3594L47.0625 8.76562L40.1875 29H35.6562L28.7617 8.74609L29.4258 22.3594V29H22.5703V0.5625H31.5742ZM66.6523 0.5625L73 20.3477L79.3281 0.5625H88.3516V29H81.4766V22.3594L82.1406 8.76562L75.2656 29H70.7344L63.8398 8.74609L64.5039 22.3594V29H57.6484V0.5625H66.6523ZM110.363 16.9492H99.582V23.7266H112.316V29H92.7266V0.5625H112.355V5.85547H99.582V11.8516H110.363V16.9492Z" fill="white"/>
</svg>
