<svg width="113" height="29" viewBox="0 0 113 29" fill="none" xmlns="http://www.w3.org/2000/svg">
<path d="M17.7852 16.9492H7.00391V23.7266H19.7383V29H0.148438V0.5625H19.7773V5.85547H7.00391V11.8516H17.7852V16.9492ZM31.5352 0.5625L37.8828 20.3477L44.2109 0.5625H53.2344V29H46.3594V22.3594L47.0234 8.76562L40.1484 29H35.6172L28.7227 8.74609L29.3867 22.3594V29H22.5312V0.5625H31.5352ZM66.6133 0.5625L72.9609 20.3477L79.2891 0.5625H88.3125V29H81.4375V22.3594L82.1016 8.76562L75.2266 29H70.6953L63.8008 8.74609L64.4648 22.3594V29H57.6094V0.5625H66.6133ZM110.324 16.9492H99.543V23.7266H112.277V29H92.6875V0.5625H112.316V5.85547H99.543V11.8516H110.324V16.9492Z" fill="black"/>
</svg>
