<svg width="21" height="20" viewBox="0 0 21 20" fill="none" xmlns="http://www.w3.org/2000/svg">
<path fill-rule="evenodd" clip-rule="evenodd" d="M5.20729 9.99967C4.93694 9.99967 4.73129 10.2309 4.77574 10.4848L5.61378 15.2737C5.75442 16.0773 6.48451 16.6663 7.33997 16.6663H13.6601C14.5156 16.6663 15.2456 16.0773 15.3863 15.2737L16.2243 10.4848C16.2688 10.2309 16.0631 9.99967 15.7928 9.99967H5.20729ZM3.65793 8.33301C3.11723 8.33301 2.70595 8.7954 2.79484 9.30334L3.88759 15.5477C4.16887 17.155 5.62904 18.333 7.33997 18.333H13.6601C15.371 18.333 16.8312 17.155 17.1125 15.5477L18.2052 9.30334C18.2941 8.7954 17.8828 8.33301 17.3421 8.33301H3.65793Z" fill="#12131A"/>
<path fill-rule="evenodd" clip-rule="evenodd" d="M8.75 11.667C8.26675 11.667 7.875 12.0401 7.875 12.5003V14.167C7.875 14.6272 8.26675 15.0003 8.75 15.0003C9.23325 15.0003 9.625 14.6272 9.625 14.167V12.5003C9.625 12.0401 9.23325 11.667 8.75 11.667ZM12.25 11.667C11.7667 11.667 11.375 12.0401 11.375 12.5003V14.167C11.375 14.6272 11.7667 15.0003 12.25 15.0003C12.7332 15.0003 13.125 14.6272 13.125 14.167V12.5003C13.125 12.0401 12.7332 11.667 12.25 11.667Z" fill="#12131A"/>
<path fill-rule="evenodd" clip-rule="evenodd" d="M9.36872 3.08958C9.71043 2.76414 9.71043 2.23651 9.36872 1.91107C9.02701 1.58563 8.47299 1.58563 8.13128 1.91107L4.63128 5.2444C4.28957 5.56984 4.28957 6.09748 4.63128 6.42291C4.97299 6.74835 5.52701 6.74835 5.86872 6.42291L9.36872 3.08958ZM11.6313 3.08958C11.2896 2.76414 11.2896 2.23651 11.6313 1.91107C11.973 1.58563 12.527 1.58563 12.8687 1.91107L16.3687 5.2444C16.7104 5.56984 16.7104 6.09748 16.3687 6.42291C16.027 6.74835 15.473 6.74835 15.1313 6.42291L11.6313 3.08958Z" fill="#12131A"/>
<path fill-rule="evenodd" clip-rule="evenodd" d="M16.625 6.66667H4.375C3.89175 6.66667 3.5 7.03976 3.5 7.5C3.5 7.96024 3.89175 8.33333 4.375 8.33333H16.625C17.1082 8.33333 17.5 7.96024 17.5 7.5C17.5 7.03976 17.1082 6.66667 16.625 6.66667ZM4.375 5C2.92525 5 1.75 6.11929 1.75 7.5C1.75 8.88071 2.92525 10 4.375 10H16.625C18.0747 10 19.25 8.88071 19.25 7.5C19.25 6.11929 18.0747 5 16.625 5H4.375Z" fill="#12131A"/>
</svg>
